<svg width="140" height="40" xmlns="http://www.w3.org/2000/svg" xmlns:xlink="http://www.w3.org/1999/xlink"><defs><path id="a" d="M0 .096h26.301v30.889H0z"/><path id="c" d="M.274.147H22.02v22.421H.274z"/><path id="e" d="M0 31.776h139.698V0H0z"/></defs><g transform="translate(0 3)" fill="none" fill-rule="evenodd"><g transform="translate(0 .787)"><mask id="b" fill="#fff"><use xlink:href="#a"/></mask><path d="M5.63 26.131h4.618c2.58 0 4.618-.42 6.113-1.257 1.495-.84 2.565-2.045 3.211-3.62.645-1.573.968-3.478.968-5.714 0-2.206-.323-4.104-.968-5.692-.646-1.589-1.716-2.81-3.21-3.663-1.496-.853-3.535-1.28-6.114-1.28H5.63v21.226zM0 30.985V.095h10.512c3.606 0 6.575.64 8.906 1.92 2.33 1.28 4.06 3.075 5.19 5.384 1.128 2.31 1.693 5.023 1.693 8.141 0 3.119-.565 5.833-1.693 8.142-1.13 2.31-2.86 4.104-5.19 5.384-2.331 1.28-5.3 1.919-8.906 1.919H0z" fill="#000" mask="url(#b)"/></g><g transform="translate(30.887 9.208)"><mask id="d" fill="#fff"><use xlink:href="#c"/></mask><path d="M11.362 4.631c-1.347 0-2.536.382-3.567 1.143-1.031.762-1.691 1.919-1.977 3.47h10.615c-.086-1.407-.601-2.528-1.547-3.362-.946-.834-2.12-1.25-3.524-1.25m-.043 17.937c-2.149 0-4.054-.46-5.716-1.38a9.965 9.965 0 01-3.91-3.88C.747 15.64.274 13.714.274 11.528c0-2.212.466-4.181 1.397-5.906.93-1.725 2.22-3.068 3.868-4.032C7.186.63 9.127.147 11.362.147c2.09 0 3.94.46 5.544 1.38a9.898 9.898 0 013.76 3.773c.902 1.595 1.354 3.37 1.354 5.325 0 .316-.008.646-.022.991-.014.345-.036.705-.064 1.078H5.732c.114 1.668.694 2.975 1.74 3.924 1.046.949 2.314 1.423 3.804 1.423 1.117 0 2.056-.251 2.815-.754a4.667 4.667 0 001.697-1.963h5.587a10.177 10.177 0 01-1.998 3.687 9.856 9.856 0 01-3.438 2.609c-1.361.632-2.901.949-4.62.949" fill="#000" mask="url(#d)"/></g><path d="M57.767 31.638V9.881h4.94l.438 3.685a7.643 7.643 0 012.907-3.07c1.268-.76 2.761-1.141 4.481-1.141 2.681 0 4.766.848 6.252 2.544 1.487 1.697 2.23 4.182 2.23 7.457v12.282h-5.596V19.883c0-1.872-.38-3.305-1.137-4.3-.758-.993-1.938-1.49-3.541-1.49-1.574 0-2.864.555-3.87 1.666-1.005 1.112-1.508 2.662-1.508 4.65v11.229h-5.596zm37.394.091c-2.284 0-4.113-.558-5.49-1.675-1.376-1.115-2.063-3.098-2.063-5.947V14.59h-3.733V9.875h3.733l.659-5.86h4.962v5.86h5.884v4.715H93.23v9.56c0 1.058.226 1.785.68 2.181.454.397 1.237.595 2.35.595h2.723v4.803H95.16z" fill="#000"/><mask id="f" fill="#fff"><use xlink:href="#e"/></mask><path d="M104.676 31.729h5.622V9.87h-5.622v21.86zm2.811-25.251c-1.025 0-1.867-.308-2.525-.925-.659-.617-.988-1.396-.988-2.336s.329-1.71.988-2.314c.658-.601 1.5-.903 2.525-.903s1.867.302 2.526.903c.659.603.988 1.374.988 2.314s-.33 1.719-.988 2.336c-.659.617-1.501.925-2.526.925z" fill="#000" mask="url(#f)"/><path d="M139.698 18.769v.8c0 6.767-5.174 12.069-11.918 12.069-6.744 0-11.919-5.302-11.919-12.068v-.801h4.7v.8c0 4.16 3.074 7.177 7.219 7.177 4.144 0 7.218-3.018 7.218-7.176v-.801h4.7z" fill="#3DADB2" mask="url(#f)"/></g></svg>